<svg xmlns="http://www.w3.org/2000/svg" width="1100" height="320" viewBox="0 0 1100 320">
      <g transform="translate(24 32) scale(1.0)">
    <defs>
      <marker id="arrow" markerWidth="8" markerHeight="8" refX="6.5" refY="3" orient="auto" markerUnits="strokeWidth">
        <path d="M0,0 L0,6 L7,3 z" fill="#FFFFFF"/>
      </marker>
    </defs>
    
    <path d="M128 18 C72 18 34 60 34 112 C34 176 128 238 128 238 C128 238 222 176 222 112 C222 60 184 18 128 18 Z" fill="#0B2545"/>
    <circle cx="128" cy="108" r="49" fill="none" stroke="#FFFFFF" stroke-width="14" stroke-linecap="round" stroke-dasharray="245 64" transform="rotate(-52 128 108)" marker-end="url(#arrow)"/>
    <path d="M126 117 C128 83 153 67 181 70 C177 98 155 118 126 117 Z" fill="#0B2545"/>
    <path d="M126 117 C140 101 153 89 172 78" fill="none" stroke="#0B2545" stroke-width="4" stroke-linecap="round" opacity="0.65"/>
    <circle cx="128" cy="108" r="9" fill="#FFFFFF" opacity="0.95"/>
    </g>
      <text x="314" y="166" font-family="Inter, Arial, sans-serif" font-size="122" font-weight="800" letter-spacing="-5" fill="#0B2545">TYDI</text>
      <text x="598" y="166" font-family="Inter, Arial, sans-serif" font-size="122" font-weight="800" letter-spacing="-5" fill="#0B2545">GO</text>
      <text x="322" y="224" font-family="Inter, Arial, sans-serif" font-size="27" font-weight="600" letter-spacing="4" fill="#0B2545">TAP. SORT. PICKED.</text>
    </svg>